<?xml version="1.0" encoding="UTF-8"?>
<svg width="116px" height="90px" viewBox="0 0 116 90" version="1.1" xmlns="http://www.w3.org/2000/svg" xmlns:xlink="http://www.w3.org/1999/xlink">
    <title>discord</title>
    <g id="Page-1" stroke="none" stroke-width="1" fill="none" fill-rule="evenodd">
        <g id="concept-copy-3" transform="translate(-172.000000, -2132.000000)" fill="#FFFFFF" fill-rule="nonzero">
            <g id="Group-5" transform="translate(100.000000, 2079.000000)">
                <path d="M170.263029,60.5374797 C162.754142,57.0162492 154.725284,54.4571653 146.331334,53 C145.300456,54.868034 144.096095,57.3805803 143.265733,59.3793018 C134.342748,58.0343364 125.501813,58.0343364 116.742929,59.3793018 C115.912725,57.3805803 114.681015,54.868034 113.640914,53 C105.2379,54.4571653 97.1998197,57.0256523 89.6909328,60.5561265 C74.5454402,83.4951248 70.4397461,105.864358 72.4925971,127.915956 C82.537884,135.43463 92.2729773,140.001997 101.843779,142.990756 C104.206863,139.73106 106.314415,136.265929 108.130019,132.614012 C104.672134,131.297096 101.360222,129.671949 98.2308565,127.785269 C99.0610607,127.168806 99.8731373,126.524294 100.657705,125.861135 C119.744608,134.808923 140.483014,134.808923 159.341893,125.861135 C160.135684,126.524294 160.947601,127.168806 161.768742,127.785269 C158.630154,129.681193 155.309178,131.30634 151.851293,132.623414 C153.666897,136.265929 155.765385,139.740463 158.137533,143 C167.717557,140.011241 177.461682,135.444033 187.506977,127.915956 C189.915698,102.35253 183.392211,80.1887318 170.263029,60.5374797 Z M110.73035,114.354422 C105.000653,114.354422 100.301835,108.993207 100.301835,102.464571 C100.301835,95.9359348 104.900317,90.5654765 110.73035,90.5654765 C116.560542,90.5654765 121.259202,95.9265316 121.158865,102.464571 C121.167928,108.993207 116.560542,114.354422 110.73035,114.354422 Z M149.269248,114.354422 C143.539552,114.354422 138.840734,108.993207 138.840734,102.464571 C138.840734,95.9359348 143.439056,90.5654765 149.269248,90.5654765 C155.099282,90.5654765 159.7981,95.9265316 159.697763,102.464571 C159.697763,108.993207 155.099282,114.354422 149.269248,114.354422 Z" id="discord"></path>
            </g>
        </g>
    </g>
</svg>